<?xml version="1.0" standalone="no"?><!DOCTYPE svg PUBLIC "-//W3C//DTD SVG 1.1//EN" "http://www.w3.org/Graphics/SVG/1.1/DTD/svg11.dtd"><svg t="1734394633041" class="icon" viewBox="0 0 1024 1024" version="1.1" xmlns="http://www.w3.org/2000/svg" p-id="4483" xmlns:xlink="http://www.w3.org/1999/xlink" width="200" height="200"><path d="M1024 512c0 282.767-229.242 512-512 512C229.233 1024 0 794.767 0 512S229.233 0 512 0c282.758 0 512 229.233 512 512z" fill="#EEF5FF" p-id="4484"></path><path d="M841.97 316.514l-329.969 191.09-329.972-191.09 329.972-191.176z" fill="#3FABFF" p-id="4485"></path><path d="M171.399 330.23v377.254L501.37 898.662V521.318L171.399 330.23z m187.313 461.12l-27.81-16.088-27.734-16.014-93.859-376.074 31 17.904 31.088 17.959 60.739 280.67 61.973-209.818 29.982 17.273 30.276 17.469-95.655 266.719zM522.631 521.318v377.344l329.97-191.178V330.23l-329.97 191.088z m49.935 317.362l-0.84-304.154 231.385-132.475 0.083 26.82 0.083 27.102-176.173 100.621 0.196 64.611 166.059-94.781 0.085 26.053 0.083 26.326-166.101 94.767 0.223 79.252 182.299-104.141 0.085 26.891 0.083 27.102-237.55 136.006z" fill="#1F95FF" p-id="4486"></path></svg>